<svg width="30" height="29" viewBox="0 0 30 29" fill="none" xmlns="http://www.w3.org/2000/svg">
<path fill-rule="evenodd" clip-rule="evenodd" d="M26.771 10.5316L25.1253 2.78676C24.9068 1.73836 23.9966 0.992671 22.9408 1.00005H7.04466C5.98881 1.00005 5.0713 1.73836 4.86013 2.78676L3.21445 10.5316C2.12219 10.5685 1.20469 11.3806 1.02992 12.4807C0.855161 13.5734 1.45955 14.644 2.48628 15.0353L4.98392 26.7743C5.12955 27.4905 5.76307 28.0073 6.48396 27.9999H23.516C24.2369 27.9999 24.8631 27.4905 25.0161 26.7743L27.5137 15.0353C28.5405 14.644 29.1448 13.5808 28.9701 12.4807C28.7953 11.388 27.8778 10.5685 26.7855 10.5316H26.771ZM6.14172 3.05993C6.2291 2.62433 6.60776 2.31424 7.04466 2.32162H22.9408C23.3777 2.32162 23.7563 2.62433 23.8437 3.05993L25.4311 10.5242H4.56158L6.14901 3.05993H6.14172ZM23.7272 26.4864L26.1302 15.1755H3.86253L6.26551 26.4864C6.28735 26.5898 6.37474 26.6636 6.48396 26.6636H23.5087C23.6107 26.6636 23.7054 26.5898 23.7272 26.4864ZM26.6909 13.8466H3.28727C2.74841 13.8392 2.32608 13.3962 2.32608 12.8499C2.32608 12.3035 2.7557 11.8679 3.28727 11.8532H26.6909C27.2297 11.8605 27.6521 12.3035 27.6521 12.8499C27.6521 13.3962 27.2224 13.8318 26.6909 13.8466ZM21.7611 17.1616L20.8873 24.8252C20.8509 25.1574 20.5669 25.4158 20.2392 25.4158C20.2174 25.4158 20.1883 25.4158 20.1664 25.4158C19.8096 25.3715 19.5475 25.0467 19.5912 24.6775L20.465 17.0139C20.5087 16.6522 20.8291 16.3864 21.1931 16.4307C21.5499 16.475 21.8121 16.7998 21.7684 17.169L21.7611 17.1616ZM10.4016 24.6702C10.4452 25.0319 10.1831 25.3642 9.82629 25.4085C9.80445 25.4085 9.77533 25.4085 9.75348 25.4085C9.41852 25.4085 9.14181 25.1574 9.1054 24.8178L8.23159 17.1542C8.20975 16.977 8.26071 16.7998 8.36994 16.6669C8.47917 16.5266 8.63937 16.438 8.80685 16.4233C9.16366 16.379 9.49134 16.6448 9.53503 17.0065L10.4088 24.6702H10.4016ZM15.6517 17.0878V24.7366C15.6517 25.0984 15.3532 25.3863 14.9964 25.3863C14.6395 25.3863 14.3483 25.0984 14.341 24.7366V17.0878C14.341 16.9106 14.4065 16.7334 14.5303 16.6079C14.6541 16.4823 14.8216 16.4085 15.0036 16.4085C15.1857 16.4085 15.3459 16.4823 15.4697 16.6079C15.5935 16.7334 15.659 16.9106 15.659 17.0878H15.6517Z" fill="black" stroke="#231F20" stroke-width="0.75" stroke-miterlimit="10"/>
</svg>
