<svg width="206" height="49" viewBox="0 0 206 49" fill="none" xmlns="http://www.w3.org/2000/svg">
<path d="M9.01873 46.7924C17.7196 48.7657 28.2909 48.7657 36.9813 46.7924C40.3754 46.0979 43.9272 42.3716 44.5893 38.8108C46.4702 29.6826 46.4702 18.5922 44.5893 9.47505C43.9272 5.9142 40.3754 2.18798 36.9813 1.49344C28.2804 -0.479911 17.7091 -0.479911 9.01873 1.49344C5.62456 2.18798 2.07276 5.9142 1.41074 9.47505C-0.470246 18.6032 -0.470246 29.6937 1.41074 38.8108C2.07276 42.3716 5.62456 46.0979 9.01873 46.7924Z" fill="#0765FF"/>
<path d="M14.8394 38.5751L11.2184 12.4583L24.327 10.5795L25.0146 15.5058C25.1006 16.1393 25.5734 16.4998 26.1965 16.4015L31.9772 15.5713L34.7708 35.7133L14.8501 38.5751H14.8394ZM26.5619 11.639L29.9035 13.7253L26.9057 14.1513L26.5511 11.6281L26.5619 11.639ZM33.7286 13.9219V13.8127C33.6963 13.7035 33.5996 13.7253 33.5782 13.6161C33.5782 13.6161 33.5674 13.5069 33.46 13.5287L26.0676 8.80998C25.8205 8.52598 25.4767 8.36214 25.0684 8.41675L9.89684 10.5904C9.27365 10.6778 8.91907 11.1584 9.01577 11.792L12.9376 40.0169C13.0235 40.6505 13.4963 41.0109 14.1195 40.9126L36.1032 37.7559C36.7264 37.6685 37.0809 37.1879 36.9842 36.5544L33.879 14.2059V14.0967C33.8575 14.0239 33.8074 13.9583 33.7286 13.9001V13.9219Z" fill="white"/>
<path d="M67.2074 20.0938C67.1278 19.3495 66.7926 18.7699 66.2017 18.3552C65.6165 17.9404 64.8551 17.733 63.9176 17.733C63.2585 17.733 62.6932 17.8324 62.2216 18.0313C61.75 18.2302 61.3892 18.5001 61.1392 18.841C60.8892 19.1819 60.7614 19.5711 60.7557 20.0086C60.7557 20.3722 60.8381 20.6876 61.0028 20.9546C61.1733 21.2217 61.4034 21.4489 61.6932 21.6364C61.983 21.8182 62.304 21.9717 62.6562 22.0967C63.0085 22.2217 63.3636 22.3268 63.7216 22.412L65.358 22.8211C66.017 22.9745 66.6506 23.1819 67.2585 23.4432C67.8722 23.7046 68.4205 24.0342 68.9034 24.4319C69.392 24.8296 69.7784 25.3097 70.0625 25.8722C70.3466 26.4347 70.4886 27.0938 70.4886 27.8495C70.4886 28.8722 70.2273 29.7728 69.7045 30.5512C69.1818 31.3239 68.4261 31.929 67.4375 32.3665C66.4545 32.7984 65.2642 33.0143 63.8665 33.0143C62.5085 33.0143 61.3295 32.804 60.3295 32.3836C59.3352 31.9631 58.5568 31.3495 57.9943 30.5427C57.4375 29.7359 57.1364 28.7529 57.0909 27.5938H60.2017C60.2472 28.2018 60.4347 28.7074 60.7642 29.1109C61.0938 29.5143 61.5227 29.8154 62.0511 30.0143C62.5852 30.2131 63.1818 30.3126 63.8409 30.3126C64.5284 30.3126 65.1307 30.2103 65.6477 30.0057C66.1705 29.7955 66.5795 29.5057 66.875 29.1364C67.1705 28.7614 67.321 28.3239 67.3267 27.8239C67.321 27.3694 67.1875 26.9944 66.9261 26.6989C66.6648 26.3978 66.2983 26.1478 65.8267 25.9489C65.3608 25.7444 64.8153 25.5626 64.1903 25.4035L62.2045 24.8921C60.767 24.5228 59.6307 23.9631 58.7955 23.2131C57.9659 22.4574 57.5511 21.4546 57.5511 20.2046C57.5511 19.1762 57.8295 18.2756 58.3864 17.5029C58.9489 16.7302 59.7131 16.1307 60.679 15.7046C61.6449 15.2728 62.7386 15.0569 63.9602 15.0569C65.1989 15.0569 66.2841 15.2728 67.2159 15.7046C68.1534 16.1307 68.8892 16.7245 69.4233 17.4859C69.9574 18.2415 70.233 19.1109 70.25 20.0938H67.2074ZM79.2281 19.6592V22.0455H71.7025V19.6592H79.2281ZM73.5605 16.5228H76.6457V28.8126C76.6457 29.2273 76.7082 29.5455 76.8332 29.7671C76.9639 29.983 77.1343 30.1307 77.3446 30.2103C77.5548 30.2898 77.7878 30.3296 78.0434 30.3296C78.2366 30.3296 78.4128 30.3154 78.5718 30.287C78.7366 30.2586 78.8616 30.233 78.9468 30.2103L79.4667 32.6222C79.302 32.679 79.0662 32.7415 78.7593 32.8097C78.4582 32.8779 78.0889 32.9177 77.6514 32.929C76.8787 32.9518 76.1826 32.8353 75.5633 32.5796C74.944 32.3182 74.4525 31.9148 74.0889 31.3694C73.7309 30.8239 73.5548 30.1421 73.5605 29.3239V16.5228ZM89.6721 27.2444V19.6592H92.7573V32.7501H89.7659V30.4234H89.6295C89.334 31.1563 88.8482 31.7557 88.1721 32.2217C87.5016 32.6876 86.6749 32.9205 85.692 32.9205C84.834 32.9205 84.0755 32.7302 83.4164 32.3495C82.763 31.9631 82.2516 31.4035 81.8823 30.6705C81.513 29.9319 81.3284 29.0398 81.3284 27.9944V19.6592H84.4136V27.5171C84.4136 28.3467 84.6409 29.0057 85.0954 29.4944C85.5499 29.983 86.1465 30.2273 86.8852 30.2273C87.3397 30.2273 87.7801 30.1165 88.2062 29.8949C88.6323 29.6734 88.9818 29.3438 89.2545 28.9063C89.5329 28.4631 89.6721 27.9092 89.6721 27.2444ZM100.308 32.9802C99.2795 32.9802 98.359 32.716 97.5465 32.1876C96.734 31.6592 96.092 30.8921 95.6204 29.8864C95.1488 28.8807 94.913 27.6592 94.913 26.2217C94.913 24.7671 95.1516 23.5398 95.6289 22.5398C96.1118 21.5342 96.7624 20.7756 97.5806 20.2643C98.3988 19.7472 99.3107 19.4887 100.316 19.4887C101.083 19.4887 101.714 19.6194 102.208 19.8807C102.703 20.1364 103.095 20.4461 103.385 20.8097C103.674 21.1677 103.899 21.5057 104.058 21.8239H104.186V15.2955H107.279V32.7501H104.245V30.6876H104.058C103.899 31.0057 103.669 31.3438 103.368 31.7018C103.066 32.054 102.669 32.3552 102.174 32.6052C101.68 32.8552 101.058 32.9802 100.308 32.9802ZM101.169 30.4489C101.822 30.4489 102.379 30.2728 102.839 29.9205C103.299 29.5626 103.649 29.0654 103.887 28.429C104.126 27.7927 104.245 27.0512 104.245 26.2046C104.245 25.358 104.126 24.6222 103.887 23.9972C103.654 23.3722 103.308 22.8864 102.848 22.5398C102.393 22.1932 101.833 22.0199 101.169 22.0199C100.481 22.0199 99.9073 22.1989 99.4471 22.5569C98.9868 22.9148 98.6403 23.4092 98.4073 24.0398C98.1743 24.6705 98.0579 25.3921 98.0579 26.2046C98.0579 27.0228 98.1743 27.7529 98.4073 28.3949C98.6459 29.0313 98.9954 29.5342 99.4556 29.9035C99.9215 30.2671 100.493 30.4489 101.169 30.4489ZM112.005 37.6592C111.584 37.6592 111.195 37.6251 110.837 37.5569C110.485 37.4944 110.204 37.4205 109.993 37.3353L110.709 34.9319C111.158 35.0626 111.559 35.1251 111.911 35.1194C112.263 35.1137 112.573 35.0029 112.84 34.787C113.113 34.5768 113.343 34.2245 113.53 33.7302L113.794 33.0228L109.047 19.6592H112.32L115.337 29.5455H115.473L118.499 19.6592H121.78L116.539 34.3353C116.294 35.0285 115.971 35.6222 115.567 36.1165C115.164 36.6165 114.669 36.9972 114.084 37.2586C113.505 37.5256 112.812 37.6592 112.005 37.6592ZM123.572 32.7501V15.2955H130.253C131.515 15.2955 132.563 15.4944 133.398 15.8921C134.239 16.2842 134.867 16.8211 135.282 17.5029C135.702 18.1847 135.912 18.9574 135.912 19.8211C135.912 20.5313 135.776 21.1393 135.503 21.6449C135.231 22.1449 134.864 22.5512 134.404 22.8637C133.944 23.1762 133.43 23.4006 132.861 23.537V23.7074C133.481 23.7415 134.074 23.9319 134.643 24.2785C135.216 24.6194 135.685 25.1023 136.049 25.7273C136.412 26.3523 136.594 27.108 136.594 27.9944C136.594 28.8978 136.376 29.7103 135.938 30.4319C135.501 31.1478 134.841 31.7131 133.961 32.1279C133.08 32.5427 131.972 32.7501 130.637 32.7501H123.572ZM126.734 30.108H130.134C131.282 30.108 132.109 29.8893 132.614 29.4518C133.126 29.0086 133.381 28.4404 133.381 27.7472C133.381 27.2302 133.253 26.7643 132.998 26.3495C132.742 25.929 132.378 25.5995 131.907 25.3609C131.435 25.1165 130.873 24.9944 130.219 24.9944H126.734V30.108ZM126.734 22.7188H129.861C130.407 22.7188 130.898 22.6194 131.336 22.4205C131.773 22.216 132.117 21.929 132.367 21.5597C132.623 21.1847 132.751 20.7415 132.751 20.2302C132.751 19.554 132.512 18.9972 132.035 18.5597C131.563 18.1222 130.861 17.9035 129.93 17.9035H126.734V22.7188ZM141.814 15.2955V32.7501H138.729V15.2955H141.814ZM150.217 33.0057C148.938 33.0057 147.83 32.7245 146.893 32.162C145.955 31.5995 145.228 30.8126 144.711 29.8012C144.2 28.7898 143.944 27.608 143.944 26.2557C143.944 24.9035 144.2 23.7188 144.711 22.7018C145.228 21.6847 145.955 20.8949 146.893 20.3324C147.83 19.7699 148.938 19.4887 150.217 19.4887C151.495 19.4887 152.603 19.7699 153.541 20.3324C154.478 20.8949 155.202 21.6847 155.714 22.7018C156.231 23.7188 156.489 24.9035 156.489 26.2557C156.489 27.608 156.231 28.7898 155.714 29.8012C155.202 30.8126 154.478 31.5995 153.541 32.162C152.603 32.7245 151.495 33.0057 150.217 33.0057ZM150.234 30.5342C150.927 30.5342 151.506 30.3438 151.972 29.9631C152.438 29.5768 152.785 29.0597 153.012 28.412C153.245 27.7643 153.362 27.0427 153.362 26.2472C153.362 25.4461 153.245 24.7217 153.012 24.0739C152.785 23.4205 152.438 22.9006 151.972 22.5143C151.506 22.1279 150.927 21.9347 150.234 21.9347C149.524 21.9347 148.933 22.1279 148.461 22.5143C147.995 22.9006 147.646 23.4205 147.413 24.0739C147.185 24.7217 147.072 25.4461 147.072 26.2472C147.072 27.0427 147.185 27.7643 147.413 28.412C147.646 29.0597 147.995 29.5768 148.461 29.9631C148.933 30.3438 149.524 30.5342 150.234 30.5342ZM164.338 33.0057C163.031 33.0057 161.909 32.7188 160.972 32.1449C160.04 31.5711 159.321 30.7785 158.816 29.7671C158.316 28.7501 158.066 27.5796 158.066 26.2557C158.066 24.9262 158.321 23.7529 158.833 22.7359C159.344 21.7131 160.066 20.9177 160.997 20.3495C161.935 19.7756 163.043 19.4887 164.321 19.4887C165.384 19.4887 166.324 19.6847 167.142 20.0768C167.966 20.4631 168.622 21.0114 169.111 21.7217C169.6 22.4262 169.878 23.2501 169.946 24.1932H166.997C166.878 23.5626 166.594 23.037 166.145 22.6165C165.702 22.1904 165.108 21.9773 164.364 21.9773C163.733 21.9773 163.179 22.1478 162.702 22.4887C162.225 22.8239 161.852 23.3069 161.585 23.9376C161.324 24.5682 161.193 25.3239 161.193 26.2046C161.193 27.0967 161.324 27.8637 161.585 28.5057C161.847 29.1421 162.213 29.6336 162.685 29.9802C163.162 30.3211 163.722 30.4915 164.364 30.4915C164.818 30.4915 165.225 30.4063 165.583 30.2359C165.946 30.0597 166.25 29.8069 166.495 29.4773C166.739 29.1478 166.906 28.7472 166.997 28.2756H169.946C169.872 29.2018 169.6 30.0228 169.128 30.7387C168.656 31.4489 168.014 32.0057 167.202 32.4092C166.389 32.8069 165.435 33.0057 164.338 33.0057ZM174.812 28.6421L174.804 24.9177H175.298L180.002 19.6592H183.608L177.821 26.1023H177.181L174.812 28.6421ZM172 32.7501V15.2955H175.085V32.7501H172ZM180.216 32.7501L175.954 26.7927L178.034 24.6194L183.906 32.7501H180.216ZM195.53 23.1194L192.718 23.4262C192.638 23.1421 192.499 22.8751 192.3 22.6251C192.107 22.3751 191.846 22.1734 191.516 22.0199C191.187 21.8665 190.783 21.7898 190.306 21.7898C189.664 21.7898 189.124 21.929 188.687 22.2074C188.255 22.4859 188.042 22.8467 188.047 23.2898C188.042 23.6705 188.181 23.9802 188.465 24.2188C188.755 24.4574 189.232 24.6535 189.897 24.8069L192.13 25.2842C193.368 25.5512 194.289 25.9745 194.891 26.554C195.499 27.1336 195.806 27.8921 195.812 28.8296C195.806 29.6535 195.564 30.3807 195.087 31.0114C194.615 31.6364 193.959 32.1251 193.118 32.4773C192.277 32.8296 191.312 33.0057 190.221 33.0057C188.618 33.0057 187.329 32.6705 186.351 32.0001C185.374 31.3239 184.792 30.3836 184.604 29.179L187.613 28.8893C187.749 29.4802 188.039 29.9262 188.482 30.2273C188.925 30.5285 189.502 30.679 190.212 30.679C190.945 30.679 191.533 30.5285 191.976 30.2273C192.425 29.9262 192.65 29.554 192.65 29.1109C192.65 28.7359 192.505 28.4262 192.215 28.1819C191.931 27.9376 191.488 27.7501 190.885 27.6194L188.652 27.1506C187.397 26.8893 186.468 26.4489 185.865 25.8296C185.263 25.2046 184.965 24.4148 184.971 23.4603C184.965 22.6535 185.184 21.9546 185.627 21.3637C186.076 20.7671 186.698 20.3069 187.493 19.983C188.294 19.6535 189.218 19.4887 190.263 19.4887C191.797 19.4887 193.005 19.8154 193.885 20.4688C194.772 21.1222 195.32 22.0057 195.53 23.1194Z" fill="black"/>
<path d="M29.1809 20.6703C28.9459 20.9811 28.7314 21.292 28.527 21.5921C28.4351 21.7207 28.3534 21.8493 28.2512 21.9993C28.4555 22.5567 28.5986 23.1676 28.6292 23.8C28.7927 27.0475 26.4327 29.8342 23.3371 30.0271C20.2518 30.2201 17.5853 27.7335 17.4014 24.4966C17.2176 21.2598 19.5877 18.4624 22.6731 18.2695C23.6538 18.2052 24.6142 18.4302 25.4519 18.8375C25.7175 18.5267 25.9832 18.2373 26.259 17.9372L26.4429 17.755C25.3089 17.0798 23.991 16.7261 22.5913 16.8118C18.7398 17.0476 15.7873 20.531 16.012 24.5717C16.2368 28.6124 19.5571 31.7099 23.4087 31.4741C27.2602 31.2383 30.2127 27.7549 29.988 23.7142C29.9267 22.621 29.6304 21.5813 29.1707 20.6703H29.1809Z" fill="#353D6B"/>
<path d="M24.8912 21.2318C24.4306 21.9734 23.9987 22.7375 23.5956 23.5128C23.3941 23.8948 23.1925 24.2993 23.0006 24.7038L21.1004 22.2656C20.8796 21.9847 20.5149 21.951 20.2462 22.1757C19.9679 22.4229 19.9199 22.8836 20.131 23.2094L22.5495 26.9286C22.6071 27.0185 22.6935 27.1084 22.799 27.1758C22.9238 27.2657 23.0678 27.2994 23.2117 27.2882C23.4708 27.2657 23.7588 27.0859 23.8643 26.805C23.9795 26.5353 24.5265 25.1533 24.9104 24.4005C25.2751 23.6476 25.6494 22.906 26.0717 22.1757C26.4747 21.4453 26.9162 20.7375 27.3769 20.052C27.8279 19.3666 28.3174 18.67 28.8164 18.0632V18.0408C29.066 17.7486 29.0564 17.2992 28.8164 17.0183C28.5669 16.7261 28.1734 16.7261 27.9335 17.0183C27.3577 17.6924 26.849 18.3554 26.3404 19.0633C25.8221 19.7599 25.3327 20.479 24.8816 21.2206L24.8912 21.2318Z" fill="white"/>
</svg>
