<svg width="78" height="77" viewBox="0 0 78 77" fill="none" xmlns="http://www.w3.org/2000/svg">
<path d="M15.5237 74.6256C30.1031 77.7739 47.8166 77.7739 62.3783 74.6256C68.0657 73.5176 74.0172 67.5729 75.1265 61.892C78.2783 47.3291 78.2783 29.6357 75.1265 15.0905C74.0172 9.40955 68.0657 3.46483 62.3783 2.35679C47.799 -0.791455 30.0855 -0.791455 15.5237 2.35679C9.83637 3.46483 3.8849 9.40955 2.7756 15.0905C-0.37621 29.6533 -0.37621 47.3467 2.7756 61.892C3.8849 67.5729 9.83637 73.5176 15.5237 74.6256Z" fill="#0765FF"/>
<path d="M25.5955 60.7661L19.6616 18.7133L41.1432 15.6882L42.2701 23.6204C42.411 24.6405 43.1858 25.2209 44.207 25.0626L53.6801 23.7259L58.2581 56.158L25.6131 60.7661H25.5955ZM44.8057 17.3942L50.2817 20.7535L45.3691 21.4394L44.7881 17.3766L44.8057 17.3942ZM56.5501 21.0701V20.8942C56.4973 20.7183 56.3389 20.7535 56.3036 20.5776C56.3036 20.5776 56.286 20.4018 56.1099 20.4369L43.9957 12.8389C43.5907 12.3817 43.0273 12.1178 42.3582 12.2058L17.4958 15.7058C16.4746 15.8465 15.8935 16.6203 16.052 17.6405L22.4789 63.0877C22.6197 64.1078 23.3945 64.6882 24.4157 64.5299L60.4415 59.447C61.4627 59.3063 62.0438 58.5324 61.8853 57.5123L56.7967 21.5274V21.3515C56.7614 21.2343 56.6793 21.1287 56.5501 21.0349V21.0701Z" fill="white"/>
<path d="M48.0551 32.0189C47.6501 32.529 47.2803 33.039 46.9282 33.5315C46.7697 33.7426 46.6288 33.9536 46.4528 34.1998C46.8049 35.1144 47.0514 36.1169 47.1043 37.1546C47.386 42.4838 43.3186 47.0566 37.9834 47.3732C32.6658 47.6898 28.0701 43.6094 27.7532 38.2978C27.4362 32.9863 31.5213 28.3958 36.8388 28.0792C38.5292 27.9737 40.1844 28.3431 41.6282 29.0114C42.086 28.5013 42.5438 28.0265 43.0192 27.534L43.3362 27.235C41.3817 26.127 39.1103 25.5466 36.698 25.6873C30.0598 26.0742 24.9711 31.7903 25.3585 38.4209C25.7459 45.0516 31.4684 50.1345 38.1066 49.7476C44.7448 49.3606 49.8335 43.6446 49.4461 37.0139C49.3405 35.2199 48.8298 33.5139 48.0375 32.0189H48.0551Z" fill="#353D6B"/>
<path d="M42.3509 32.6049C41.5057 33.7657 40.7134 34.9617 39.9738 36.1753C39.6041 36.7733 39.2343 37.4065 38.8821 38.0396L35.3958 34.223C34.9908 33.7833 34.3217 33.7306 33.8287 34.0823C33.318 34.4693 33.23 35.1904 33.6174 35.7004L38.0546 41.522C38.1602 41.6627 38.3187 41.8034 38.5124 41.909C38.7413 42.0497 39.0054 42.1024 39.2695 42.0848C39.7449 42.0497 40.2732 41.7683 40.4669 41.3286C40.6781 40.9065 41.6818 38.7431 42.3861 37.5647C43.0552 36.3864 43.7419 35.2255 44.5167 34.0823C45.2562 32.9391 46.0662 31.8311 46.9113 30.7582C47.7389 29.6853 48.6369 28.5949 49.5525 27.6451V27.61C50.0103 27.1527 49.9927 26.4492 49.5525 26.0095C49.0947 25.5522 48.3728 25.5522 47.9326 26.0095C46.8761 27.0647 45.9429 28.1024 45.0097 29.2105C44.0589 30.3009 43.1609 31.4266 42.3333 32.5874L42.3509 32.6049Z" fill="white"/>
</svg>
