<svg width="14" height="13" viewBox="0 0 14 13" fill="none" xmlns="http://www.w3.org/2000/svg">
<g id="Icon">
<path id="Exclude" fill-rule="evenodd" clip-rule="evenodd" d="M11.786 5.27121L7.09255 10.6549C6.95706 10.8103 6.71438 10.8067 6.5836 10.6473L2.16994 5.26814C2.07047 5.14691 2.06895 4.97275 2.16628 4.8498L4.71792 1.62668C4.78115 1.54682 4.87742 1.50024 4.97927 1.50024H8.8526C8.95153 1.50024 9.04535 1.54419 9.10868 1.62018L9.87364 0.982714L9.10868 1.62018L11.7908 4.83877C11.8956 4.96454 11.8936 5.1478 11.786 5.27121ZM12.5398 5.92834L7.84632 11.312C7.30436 11.9337 6.33367 11.9192 5.81052 11.2816L1.39687 5.90246C0.998995 5.41755 0.992904 4.72089 1.38224 4.2291L3.93388 1.00597C4.18677 0.686529 4.57184 0.500244 4.97927 0.500244H8.8526C9.24831 0.500244 9.62357 0.676008 9.8769 0.979998L12.5591 4.19858C12.9783 4.70166 12.9701 5.43472 12.5398 5.92834ZM8.49111 2.40225C8.44705 2.23254 8.20753 2.22852 8.15781 2.39665L8.03218 2.82146C7.72645 3.85525 6.87721 4.6373 5.82177 4.85697C5.6664 4.8893 5.6664 5.11119 5.82177 5.14352C6.87721 5.36319 7.72645 6.14524 8.03218 7.17903L8.15781 7.60384C8.20753 7.77197 8.44705 7.76795 8.49111 7.59824L8.57783 7.26415C8.85787 6.18534 9.72976 5.36143 10.8227 5.14285C10.9786 5.11167 10.9786 4.88881 10.8227 4.85764C9.72976 4.63906 8.85787 3.81515 8.57783 2.73634L8.49111 2.40225Z" fill="white"/>
</g>
</svg>
